<svg xmlns="http://www.w3.org/2000/svg" width="4013" height="582" viewBox="0 0 4013 582" fill="none">
<path d="M259.199 310.35L397.069 0.000976562H517.705V453.52H406.139V171.627L259.199 310.35Z" fill="#3E444D"/>
<path d="M112.26 172.516V454.41H0.694336V0.890217L120.423 0.000976562L258.293 309.461L112.26 172.516Z" fill="#3E444D"/>
<path d="M930.408 281.004C930.408 251.658 925.873 225.87 917.709 203.639C909.546 182.297 897.754 164.512 883.242 150.284C868.729 136.056 851.495 126.274 832.448 119.16C813.4 112.046 793.445 109.378 771.676 109.378C739.023 109.378 709.997 116.492 685.507 131.609C661.017 146.727 641.969 167.179 628.364 193.857C614.758 220.535 608.409 250.769 608.409 286.339C608.409 321.909 614.758 353.033 628.364 378.822C641.969 404.61 661.017 425.063 686.414 439.291C711.811 453.519 741.744 460.633 776.211 460.633C803.422 460.633 827.005 456.187 847.867 448.184C868.729 440.18 885.963 428.62 899.568 414.392C913.174 400.164 922.244 382.379 926.78 362.815L850.588 354.812C846.96 364.594 841.518 372.597 834.262 378.822C827.005 385.046 818.842 390.382 808.865 393.939C798.887 397.496 788.91 399.275 776.211 399.275C758.07 399.275 742.651 395.718 729.952 387.714C716.347 380.6 706.369 369.929 699.113 355.701C691.857 342.362 688.228 325.467 688.228 306.792H929.501V281.004H930.408ZM689.135 251.659C690.042 238.32 693.671 225.87 699.113 214.31C706.369 201.86 716.347 191.189 728.138 183.186C740.837 175.183 755.349 171.626 771.676 171.626C787.096 171.626 800.701 175.183 812.493 182.297C824.284 189.411 833.355 198.303 839.704 210.753C846.053 223.202 849.681 236.541 849.681 251.659H689.135Z" fill="#3E444D"/>
<path d="M1018.39 453.519V113.824H1096.39V171.626H1100.02C1107.28 152.062 1119.07 136.945 1136.3 126.274C1152.63 115.603 1172.58 109.378 1196.17 109.378C1219.75 109.378 1239.71 114.713 1256.03 126.274C1272.36 137.834 1283.24 152.951 1290.5 171.626H1294.13C1301.38 152.951 1314.99 137.834 1333.13 126.274C1351.27 114.713 1373.04 109.378 1398.44 109.378C1430.18 109.378 1456.49 119.16 1476.44 138.723C1496.4 158.287 1506.37 187.632 1506.37 224.981V453.519H1424.74V238.32C1424.74 216.978 1419.3 201.86 1407.51 192.078C1395.72 182.297 1382.11 176.961 1365.78 176.961C1345.83 176.961 1330.41 183.186 1319.52 194.746C1308.64 207.196 1303.2 222.313 1303.2 241.877V453.519H1223.38V234.763C1223.38 216.978 1217.94 203.639 1207.05 192.968C1196.17 182.297 1182.56 176.961 1165.33 176.961C1153.54 176.961 1142.65 179.629 1133.58 185.854C1124.51 192.079 1116.35 200.082 1110.91 210.753C1105.46 221.424 1102.74 233.873 1102.74 247.212V453.519H1018.39Z" fill="#3E444D"/>
<path d="M1610.69 453.519V0.888672H1692.32V169.847H1695.95C1700.49 161.844 1705.93 152.951 1714.09 143.169C1721.35 133.387 1732.23 125.384 1744.93 119.159C1757.63 112.045 1774.86 109.378 1794.82 109.378C1821.12 109.378 1845.61 116.492 1867.38 128.941C1889.15 142.28 1906.39 161.844 1919.08 187.632C1931.78 213.42 1938.13 245.433 1938.13 283.671C1938.13 321.02 1931.78 353.033 1919.08 378.822C1906.39 404.61 1890.06 425.063 1868.29 438.402C1846.52 451.74 1822.03 458.854 1794.82 458.854C1774.86 458.854 1758.54 455.297 1745.84 449.073C1733.14 442.848 1722.26 434.845 1714.09 425.952C1705.93 417.059 1700.49 408.167 1695.95 400.164H1691.42V453.519H1610.69ZM1690.51 283.671C1690.51 305.903 1694.14 324.577 1700.49 341.473C1706.84 358.369 1715.91 370.818 1728.61 379.711C1740.4 388.603 1755.82 393.939 1773.05 393.939C1791.19 393.939 1806.61 389.493 1818.4 379.711C1830.19 369.929 1840.17 357.479 1845.61 340.584C1851.96 323.688 1854.68 305.013 1854.68 283.671C1854.68 262.329 1851.96 243.655 1845.61 227.648C1839.26 211.642 1830.19 198.303 1818.4 189.41C1806.61 180.518 1791.19 175.182 1773.05 175.182C1755.82 175.182 1740.4 179.629 1728.61 188.521C1716.81 197.414 1706.84 209.863 1701.39 226.759C1694.14 242.766 1690.51 262.329 1690.51 283.671Z" fill="#3E444D"/>
<path d="M2333.59 281.004C2333.59 251.658 2329.06 225.87 2320.9 203.639C2312.73 182.297 2300.94 164.512 2286.43 150.284C2271.92 136.056 2254.68 126.274 2235.63 119.16C2216.59 112.046 2196.63 109.378 2174.86 109.378C2142.21 109.378 2113.18 116.492 2088.69 131.609C2064.2 146.727 2045.16 167.179 2031.55 193.857C2017.95 220.535 2011.6 250.769 2011.6 286.339C2011.6 321.909 2017.95 353.033 2031.55 378.822C2045.16 404.61 2064.2 425.063 2089.6 439.291C2115 453.519 2144.93 460.633 2179.4 460.633C2206.61 460.633 2230.19 456.187 2251.05 448.184C2271.92 440.18 2289.15 428.62 2302.76 414.392C2316.36 400.164 2325.43 382.379 2329.97 362.815L2253.77 354.812C2250.15 364.594 2244.7 372.597 2237.45 378.822C2230.19 385.046 2222.03 390.382 2212.05 393.939C2202.07 397.496 2192.1 399.275 2179.4 399.275C2161.26 399.275 2145.84 395.718 2133.14 387.714C2119.53 380.6 2109.56 369.929 2102.3 355.701C2095.04 342.362 2091.42 325.467 2091.42 306.792H2332.69V281.004H2333.59ZM2093.23 251.659C2094.14 238.32 2097.76 225.87 2103.21 214.31C2110.46 201.86 2120.44 191.189 2132.23 183.186C2144.93 175.183 2159.44 171.626 2175.77 171.626C2191.19 171.626 2204.8 175.183 2216.59 182.297C2228.38 189.411 2237.45 198.303 2243.8 210.753C2250.15 223.202 2253.77 236.541 2253.77 251.659H2093.23Z" fill="#3E444D"/>
<path d="M2421.58 453.519V113.824H2500.49V170.736H2504.12C2510.47 151.173 2521.35 136.056 2536.77 125.384C2552.19 114.713 2569.43 109.378 2589.38 109.378C2593.92 109.378 2599.36 109.378 2604.8 110.267C2610.24 110.267 2614.78 111.156 2619.31 112.046V185.854C2615.69 184.965 2610.24 183.186 2602.99 182.297C2595.73 181.407 2588.47 180.518 2581.22 180.518C2566.71 180.518 2553.1 184.075 2541.31 190.3C2529.52 196.525 2520.45 205.417 2513.19 216.088C2506.84 226.759 2503.21 240.098 2503.21 254.326V453.519H2421.58Z" fill="#3E444D"/>
<path d="M2944.94 190.3L2896.86 203.639C2894.14 195.636 2889.61 188.522 2883.26 180.518C2877.82 173.404 2869.65 167.179 2859.68 161.844C2849.7 156.508 2837 154.73 2821.58 154.73C2800.72 154.73 2782.58 159.176 2768.97 168.958C2755.37 178.74 2748.11 190.3 2748.11 205.417C2748.11 218.756 2752.65 228.538 2762.62 236.541C2772.6 243.655 2787.11 249.88 2807.97 255.215L2858.77 266.776C2889.61 273.89 2913.19 285.45 2927.7 300.567C2943.12 315.685 2950.38 335.248 2950.38 358.369C2950.38 377.932 2944.94 394.828 2933.15 410.835C2921.35 425.952 2905.93 438.402 2885.98 447.294C2866.03 456.187 2842.44 460.633 2815.23 460.633C2779.86 460.633 2750.83 453.519 2727.25 438.402C2703.67 423.284 2689.15 401.053 2683.71 372.597L2734.5 360.147C2739.04 378.822 2748.11 392.161 2761.72 401.053C2775.32 409.946 2792.56 414.392 2814.32 414.392C2838.81 414.392 2858.77 409.056 2873.28 398.385C2887.79 387.714 2895.05 375.265 2895.05 361.037C2895.05 349.476 2890.52 339.695 2882.35 331.691C2874.19 323.688 2860.58 317.463 2843.35 313.906L2785.3 300.567C2753.55 293.453 2729.97 281.893 2715.46 265.887C2700.94 250.769 2693.69 231.206 2693.69 207.196C2693.69 187.632 2699.13 170.736 2710.01 156.508C2720.9 141.391 2736.32 129.831 2755.37 121.827C2774.41 113.824 2796.18 109.378 2820.67 109.378C2855.14 109.378 2881.45 116.492 2901.4 131.609C2922.26 146.727 2936.77 166.29 2944.94 190.3Z" fill="#3E444D"/>
<path d="M3050.15 580.683V113.825H3101.85V168.07H3108.2C3111.83 161.845 3117.27 154.731 3124.53 145.838C3131.79 136.946 3141.76 128.053 3154.46 120.939C3167.16 113.825 3185.3 110.268 3207.98 110.268C3237 110.268 3262.4 117.382 3285.08 131.61C3307.75 145.838 3324.99 166.291 3336.78 192.079C3349.48 217.868 3355.82 248.992 3355.82 284.562C3355.82 320.132 3349.48 351.256 3336.78 377.933C3324.08 404.611 3306.84 424.175 3285.08 439.292C3263.31 453.52 3237.91 460.634 3208.88 460.634C3186.21 460.634 3168.97 457.077 3155.37 449.963C3141.76 442.849 3131.79 433.956 3124.53 425.064C3117.27 415.282 3111.83 408.168 3108.2 401.943H3103.67V581.572H3050.15V580.683ZM3102.76 283.672C3102.76 309.461 3106.39 331.692 3114.55 351.256C3121.81 370.819 3133.6 385.937 3148.11 396.608C3162.63 407.279 3180.77 413.503 3202.53 413.503C3225.21 413.503 3243.35 407.279 3258.77 395.718C3273.28 384.158 3285.08 368.152 3292.33 348.588C3299.59 329.024 3304.12 306.793 3304.12 282.783C3304.12 258.773 3300.5 237.431 3293.24 217.868C3285.98 198.304 3274.19 183.187 3259.68 172.516C3245.17 160.956 3226.12 155.62 3203.44 155.62C3181.67 155.62 3163.53 160.956 3149.02 171.627C3134.51 182.298 3122.72 197.415 3115.46 216.089C3106.39 236.542 3102.76 258.773 3102.76 283.672Z" fill="#3E444D"/>
<path d="M3597.1 460.633C3566.26 460.633 3538.14 453.519 3514.56 438.402C3490.98 423.284 3472.84 403.721 3459.23 377.043C3445.63 351.255 3439.28 320.131 3439.28 285.45C3439.28 249.88 3445.63 219.645 3459.23 192.968C3472.84 166.29 3490.98 145.837 3514.56 131.609C3538.14 117.381 3565.36 109.378 3597.1 109.378C3627.94 109.378 3656.06 116.492 3679.64 131.609C3703.23 145.837 3721.37 166.29 3734.97 192.968C3747.67 219.645 3754.93 249.88 3754.93 285.45C3754.93 320.131 3748.58 351.255 3734.97 377.043C3721.37 403.721 3703.23 423.284 3679.64 438.402C3656.06 453.519 3627.94 460.633 3597.1 460.633ZM3597.1 413.503C3620.69 413.503 3640.64 407.278 3656.06 395.718C3671.48 384.157 3682.36 368.151 3690.53 348.587C3697.78 329.023 3701.41 307.681 3701.41 285.45C3701.41 262.33 3697.78 241.877 3690.53 222.313C3683.27 202.75 3671.48 186.743 3656.06 175.183C3640.64 163.622 3621.59 157.398 3597.1 157.398C3573.52 157.398 3553.56 163.622 3538.14 175.183C3522.72 186.743 3511.84 202.75 3503.68 222.313C3496.42 241.877 3492.79 263.219 3492.79 285.45C3492.79 308.571 3496.42 329.023 3503.68 348.587C3510.93 368.151 3522.72 384.157 3538.14 395.718C3553.56 408.167 3573.52 413.503 3597.1 413.503Z" fill="#3E444D"/>
<path d="M4000.74 405.5C3998.92 405.5 3995.29 406.389 3991.66 407.278C3988.04 408.167 3983.5 408.167 3977.15 408.167C3968.99 408.167 3961.73 407.278 3955.38 404.61C3949.03 401.943 3942.68 397.496 3938.15 390.382C3933.61 383.268 3931.8 371.708 3931.8 357.48V158.287H4006.18V113.824H3931.8V32.9023H3878.28V113.824H3825.68V158.287H3878.28V370.819C3878.28 390.382 3882.82 407.278 3892.8 419.728C3901.87 433.066 3913.66 441.959 3928.17 449.073C3942.68 455.298 3957.2 458.855 3972.62 458.855C3982.59 458.855 3990.76 457.966 3997.11 457.076C4003.46 455.298 4008.9 454.409 4012.53 452.63L4000.74 405.5Z" fill="#3E444D"/>
</svg>